<svg xmlns="http://www.w3.org/2000/svg" width="22.219" height="24.928" viewBox="0 0 22.219 24.928">
    <g id="chili" transform="translate(-61.823 473.846)">
        <path id="Tracé_771" data-name="Tracé 771" d="M82.76-473.769a6.844,6.844,0,0,0-1.563,1.088,7.276,7.276,0,0,0-1.339,1.723l-.235.424h-.567a5.24,5.24,0,0,0-4.722,2.948c-.074.183-.343,1.1-.59,2.055a21.6,21.6,0,0,1-1.643,4.791c-1.62,3.24-4.442,6.033-9,8.924-.836.532-.956.624-1.1.882a1.356,1.356,0,0,0,.8,1.963,6.682,6.682,0,0,0,2.124-.074,24.068,24.068,0,0,0,13.457-6.9c3.137-3.114,5.037-6.531,5.289-9.519a5.359,5.359,0,0,0-.607-2.873,6.239,6.239,0,0,0-.612-.773l-.424-.441.1-.3a4.817,4.817,0,0,1,1.317-1.992c.5-.5.6-.653.6-.973a1,1,0,0,0-.733-.973A.642.642,0,0,0,82.76-473.769Zm.389.75c.177.069.086.246-.315.635a5.527,5.527,0,0,0-1.42,2.147,1.26,1.26,0,0,1-.086.218c-.006,0-.166-.063-.355-.137s-.384-.149-.441-.172c-.1-.034-.1-.052.046-.309a6.626,6.626,0,0,1,1.992-2.1c.258-.172.475-.315.481-.315S83.1-473.036,83.149-473.019Zm-3.463,3.291a3.689,3.689,0,0,1,3.022,2.742,7.8,7.8,0,0,1-.006,2.6,2.58,2.58,0,0,1-.149.5c-.063.069-.321-.384-.481-.853a9.9,9.9,0,0,1-.269-1.025c-.137-.664-.177-.761-.366-.83s-.412.051-.567.315a3.681,3.681,0,0,1-1.368,1.162,7,7,0,0,1-1.563.527c-.1,0-.28-.59-.372-1.2a7.313,7.313,0,0,1,.04-1.78c.029-.223.017-.286-.086-.389-.2-.2-.4-.155-.813.177a2.965,2.965,0,0,1-1.368.658c-.292.034-.3.034-.258-.1a2.847,2.847,0,0,1,.212-.418A4.491,4.491,0,0,1,79.686-469.727Zm-2.954,3.583a5.526,5.526,0,0,0,.395,1.843c.223.584.292.63.841.532a6.73,6.73,0,0,0,2.742-1.156,3.727,3.727,0,0,1,.384-.286c.017,0,.029.046.029.1a5.449,5.449,0,0,0,.412,1.185,6.85,6.85,0,0,0,.412.647,2.331,2.331,0,0,1,.263.406,13.535,13.535,0,0,1-.773,1.66,22.793,22.793,0,0,1-6.176,6.9,21.57,21.57,0,0,1-11.488,4.585c-.715.04-.95-.011-1.082-.252a.663.663,0,0,1,.046-.624,8.831,8.831,0,0,1,.853-.578,25.822,25.822,0,0,0,8.643-8.105,18.771,18.771,0,0,0,2.164-5.581c.172-.675.332-1.276.349-1.334.023-.08.1-.1.395-.1a3.067,3.067,0,0,0,1.288-.343c.109-.057.218-.109.235-.114A2.813,2.813,0,0,1,76.733-466.144Z" transform="translate(0)"/>
    </g>
</svg>
