<svg xmlns="http://www.w3.org/2000/svg" width="28.037" height="28.128" viewBox="0 0 28.037 28.128">
    <g id="idees-_1_" transform="translate(0.5 52.517)">
        <path id="Tracé_763" data-name="Tracé 763" d="M16.794-51.938a8.678,8.678,0,0,0-5.122,2.609,8.436,8.436,0,0,0-2.339,4.9,8.735,8.735,0,0,0,1.917,6.654c.143.169.5.565.8.887A6.557,6.557,0,0,1,13.3-35.13a7.374,7.374,0,0,1,.554,1.716l.069.407h8.09l.069-.407a7.374,7.374,0,0,1,.554-1.716,6.557,6.557,0,0,1,1.246-1.758,9.341,9.341,0,0,0,1.875-2.556,8.708,8.708,0,0,0,.47-6.654A8.74,8.74,0,0,0,20.2-51.727,9.271,9.271,0,0,0,16.794-51.938Zm1.658,4.731a2.323,2.323,0,0,1,1.178.655,2.3,2.3,0,0,1,.671,2.038,2.285,2.285,0,0,1-.808,1.42,1.7,1.7,0,0,0-.723,1.542l-.021.623H17.174v-.57a3.126,3.126,0,0,1,1.009-2.519,3.624,3.624,0,0,0,.5-.539.809.809,0,0,0-.713-1.125.834.834,0,0,0-.686.422,1.352,1.352,0,0,0-.106.686v.475H15.59v-.5a2.394,2.394,0,0,1,.713-1.954A2.3,2.3,0,0,1,18.452-47.207Zm.306,8.655v.792H17.174v-1.584h1.584Z" transform="translate(-4.448)" fill="none" stroke="#263238" stroke-width="1"/>
        <path id="Tracé_764" data-name="Tracé 764" d="M2.129-46.9l-.554.554,1.178,1.178,1.172,1.172.565-.57.57-.565L3.9-46.291c-.639-.639-1.172-1.162-1.188-1.162S2.436-47.2,2.129-46.9Z" transform="translate(-0.756 -2.188)" fill="none" stroke="#263238" stroke-width="1"/>
        <path id="Tracé_765" data-name="Tracé 765" d="M44.906-46.291l-1.162,1.162.57.565.565.57,1.172-1.172,1.178-1.178-.554-.554c-.306-.306-.565-.554-.581-.554S45.545-46.93,44.906-46.291Z" transform="translate(-21.011 -2.188)" fill="none" stroke="#263238" stroke-width="1"/>
        <path id="Tracé_766" data-name="Tracé 766" d="M0-35.991v.792H3.221v-1.584H0Z" transform="translate(0 -7.313)" fill="none" stroke="#263238" stroke-width="1"/>
        <path id="Tracé_767" data-name="Tracé 767" d="M45.827-35.991v.792h3.221v-1.584H45.827Z" transform="translate(-22.011 -7.313)" fill="none" stroke="#263238" stroke-width="1"/>
        <path id="Tracé_768" data-name="Tracé 768" d="M2.772-28.52,1.626-27.374l.57.57.565.565L3.923-27.4l1.162-1.162-.554-.554c-.306-.306-.565-.554-.581-.554S3.405-29.153,2.772-28.52Z" transform="translate(-0.781 -10.729)" fill="none" stroke="#263238" stroke-width="1"/>
        <path id="Tracé_769" data-name="Tracé 769" d="M44.3-29.116l-.554.554L44.906-27.4l1.162,1.162.539-.539a4.569,4.569,0,0,0,.544-.6c0-.053-2.218-2.3-2.271-2.3C44.863-29.671,44.6-29.423,44.3-29.116Z" transform="translate(-21.011 -10.729)" fill="none" stroke="#263238" stroke-width="1"/>
        <path id="Tracé_770" data-name="Tracé 770" d="M18.392-10.971c0,1.89.1,2.366.66,3.221A3.983,3.983,0,0,0,23.8-6.224a4.22,4.22,0,0,0,2.176-2.1c.28-.623.3-.771.322-2.477l.026-1.595H18.392Z" transform="translate(-8.834 -19.026)" fill="none" stroke="#263238" stroke-width="1"/>
    </g>
</svg>
