<svg xmlns="http://www.w3.org/2000/svg" width="19.998" height="24.983" viewBox="0 0 19.998 24.983">
    <g id="livre" transform="translate(-50.95 511.767)">
        <path id="Tracé_772" data-name="Tracé 772" d="M52.52-511.7A2.107,2.107,0,0,0,51-510.069c-.068.356-.068,21.226,0,21.583a2.125,2.125,0,0,0,1.626,1.66c.176.034,2.783.049,8.677.039l8.423-.015.234-.107a1.871,1.871,0,0,0,.845-.859l.142-.3v-22.413l-.142-.3a1.871,1.871,0,0,0-.845-.859l-.234-.107-8.472-.01C53.965-511.773,52.744-511.763,52.52-511.7Zm17.071.825a.745.745,0,0,1,.459.44c.088.185.093.571.093,9.449,0,6.568-.015,9.307-.054,9.448a.878.878,0,0,1-.557.557c-.137.039-2.622.054-8.5.054-9.073,0-8.535-.015-9.038.273l-.21.122v-9.639c0-8.36.01-9.668.073-9.878a1.311,1.311,0,0,1,.855-.855c.068-.02,3.853-.039,8.413-.039C68.477-510.948,69.434-510.938,69.591-510.875Zm.479,22.716a.835.835,0,0,1-.552.5c-.127.039-2.686.049-8.506.039l-8.325-.015-.2-.107a1.278,1.278,0,0,1-.552-1.68,1.493,1.493,0,0,1,.718-.62c.142-.044,2.266-.059,8.462-.059,8.491,0,8.584,0,8.907-.181.1-.054.1-.039.112.928A3.731,3.731,0,0,1,70.069-488.159Z" transform="translate(0 0)"/>
        <path id="Tracé_773" data-name="Tracé 773" d="M117.771-468.784a3.931,3.931,0,0,0-1.826,1l-.259.249-.425-.059a3.369,3.369,0,0,0-2.134.449,4.237,4.237,0,0,0-1.133,1.133,3.343,3.343,0,0,0,1.865,4.893,2.855,2.855,0,0,0,.474.122c.088,0,.093.063.107,1.426.015,1.411.015,1.431.127,1.592a1.022,1.022,0,0,0,.3.254c.186.093.3.1,3.711.1s3.526,0,3.711-.1a1.022,1.022,0,0,0,.3-.254c.112-.161.112-.181.127-1.592.015-1.362.02-1.426.107-1.426a3.919,3.919,0,0,0,1.162-.425,3.245,3.245,0,0,0,1.035-.952,3.319,3.319,0,0,0-.855-4.673,3.207,3.207,0,0,0-2.227-.547l-.469.059-.283-.269a3.732,3.732,0,0,0-1.821-.981A4.9,4.9,0,0,0,117.771-468.784Zm1.519.83a2.974,2.974,0,0,1,1.572,1.025,1.085,1.085,0,0,0,.342.3,1.16,1.16,0,0,0,.42-.054,2.8,2.8,0,0,1,1.377,0,2.48,2.48,0,0,1,1.8,2.373,2.467,2.467,0,0,1-.571,1.631,2.6,2.6,0,0,1-1.406.835c-.156.029-.176.02-.229-.112a1.118,1.118,0,0,0-.649-.542c-1.675-.762-5.586-.7-6.939.112a1.19,1.19,0,0,0-.483.527c-.015.044-.112.034-.337-.029a2.507,2.507,0,0,1-1.48-3.682,3.046,3.046,0,0,1,.9-.879,2.458,2.458,0,0,1,1.7-.278c.708.161.61.19,1.152-.352a2.708,2.708,0,0,1,1.362-.85A3.525,3.525,0,0,1,119.289-467.954Zm.957,5.855a4.775,4.775,0,0,1,1.362.361l.269.132.015.522.015.527h-6.646v-.513c0-.474.01-.518.112-.581a5.742,5.742,0,0,1,2.065-.513A17.241,17.241,0,0,1,120.247-462.1Zm1.655,3.008v.635h-6.641v-1.27H121.9Z" transform="translate(-57.619 -40.821)"/>
        <path id="Tracé_774" data-name="Tracé 774" d="M88.771-212.89a1.463,1.463,0,0,0-.7.659c-.059.127-.112.234-.117.244a3.58,3.58,0,0,1-.439-.063c-.889-.151-1.279-.083-1.67.293a1,1,0,0,0-.332.532,1.236,1.236,0,0,0,.811,1.523,3.107,3.107,0,0,0,1.343-.044l.3-.063.107.259a1.244,1.244,0,0,0,.3.43c.391.332.127.317,5.41.317,5.366,0,5.059.02,5.445-.366a1.469,1.469,0,0,0,.288-.42l.083-.22.3.059a2.954,2.954,0,0,0,1.338.049,1.232,1.232,0,0,0,.454-2.095,1.334,1.334,0,0,0-.43-.269,2.943,2.943,0,0,0-1.206.015c-.215.039-.405.073-.42.073a.794.794,0,0,1-.137-.244,1.373,1.373,0,0,0-.728-.674C98.522-212.973,89.01-212.968,88.771-212.89Zm9.878.889c.122.117.122.122.122,1.113,0,.913-.01,1.011-.093,1.113l-.093.117H89l-.093-.117c-.083-.1-.093-.2-.093-1.113,0-.991,0-1,.122-1.113l.117-.122h9.483ZM87.3-211.24a4.618,4.618,0,0,1,.5.1c.176.044.181.054.181.259s0,.215-.205.264a3.656,3.656,0,0,1-1.226.112.453.453,0,0,1-.234-.513C86.418-211.284,86.667-211.342,87.3-211.24Zm13.809.024a.37.37,0,0,1,.132.488c-.1.244-.249.283-.781.215-.239-.029-.532-.078-.645-.107-.205-.049-.21-.054-.21-.264,0-.239,0-.239.557-.337A1.507,1.507,0,0,1,101.106-211.215Z" transform="translate(-32.828 -284.224)"/>
        <path id="Tracé_775" data-name="Tracé 775" d="M111.118-50.878a.371.371,0,0,0,.02.566l.142.142h4.478c3.306,0,4.5-.015,4.58-.059a.4.4,0,0,0,.107-.649L120.327-51h-9.092Z" transform="translate(-57.113 -438.268)"/>
        <path id="Tracé_776" data-name="Tracé 776" d="M324.431-50.844a.367.367,0,0,0,.054.562c.122.112.132.112,1.709.112h1.592l.142-.142a.371.371,0,0,0,.02-.566L327.829-51h-3.267Z" transform="translate(-260.026 -438.268)"/>
    </g>
</svg>
