<svg xmlns="http://www.w3.org/2000/svg" width="30.774" height="30.774" viewBox="0 0 30.774 30.774">
  <path id="ic_brightness_high_24px" d="M25.753,11.074V4.986H19.666L15.37.69l-4.3,4.3H4.986v6.087l-4.3,4.3,4.3,4.3v6.087h6.087l4.3,4.3,4.3-4.3h6.087V19.666l4.3-4.3ZM15.37,23.157a7.788,7.788,0,1,1,7.788-7.788A7.794,7.794,0,0,1,15.37,23.157Zm0-12.979a5.192,5.192,0,1,0,5.192,5.192A5.19,5.19,0,0,0,15.37,10.178Z" transform="translate(0.017 0.017)" fill="none" stroke="#263238" stroke-width="1"/>
</svg>
